<svg width="26" height="31" viewBox="0 0 26 31" fill="none" xmlns="http://www.w3.org/2000/svg">
    <path d="M13 7.57001H2C1.44772 7.57001 1 8.01772 1 8.57001V23.57C1 24.1223 1.44772 24.57 2 24.57H10M12.5 24.57H24C24.5523 24.57 25 24.1223 25 23.57V8.57001C25 8.01772 24.5523 7.57001 24 7.57001H16" stroke="#FDFDFD" stroke-width="2"/>
    <path d="M16.8064 3.57001L17.7928 3.73441L18.3561 0.354842L16.0633 2.90082L16.8064 3.57001ZM14.8064 15.57L13.82 15.4056L13.626 16.57H14.8064V15.57ZM6 15.57L5.2569 14.9008L3.75374 16.57H6L6 15.57ZM11.5466 15.57L12.533 15.7344L12.7271 14.57H11.5466V15.57ZM9.54666 27.57L8.56027 27.4056L7.99701 30.7852L10.2898 28.2392L9.54666 27.57ZM20.3531 15.57L21.0962 16.2392L22.5993 14.57H20.3531V15.57ZM15.82 3.40561L13.82 15.4056L15.7928 15.7344L17.7928 3.73441L15.82 3.40561ZM6.7431 16.2392L17.5495 4.23919L16.0633 2.90082L5.2569 14.9008L6.7431 16.2392ZM11.5466 14.57L6 14.57L6 16.57L11.5466 16.57V14.57ZM10.5331 27.7344L12.533 15.7344L10.5603 15.4056L8.56027 27.4056L10.5331 27.7344ZM19.61 14.9008L8.80357 26.9008L10.2898 28.2392L21.0962 16.2392L19.61 14.9008ZM14.8064 16.57H20.3531V14.57H14.8064V16.57Z" fill="#FDFDFD"/>
</svg>
